<?xml version="1.0" encoding="UTF-8"?>
<svg id="_图层_1" data-name="图层 1" xmlns="http://www.w3.org/2000/svg" viewBox="0 0 400 400">
  <defs>
    <style>
      .cls-1 {
        fill: none;
        stroke-width: 15px;
      }

      .cls-1, .cls-2, .cls-3 {
        stroke: #8ff5ff;
        stroke-miterlimit: 10;
        filter: url(#glow);
      }

      .cls-2 {
        stroke-width: 5px;
      }

      .cls-2, .cls-3 {
        fill: #8ff5ff;
      }

      .cls-3 {
        stroke-width: 10px;
      }
    </style>
    <filter id="glow" x="-50%" y="-50%" width="200%" height="200%">
      <feGaussianBlur stdDeviation="3" result="coloredBlur"/>
      <feMerge>
        <feMergeNode in="coloredBlur"/>
        <feMergeNode in="coloredBlur"/>
        <feMergeNode in="SourceGraphic"/>
      </feMerge>
    </filter>
  </defs>
  <!-- 黑色背景 -->
  <rect width="400" height="400" rx="60" ry="60" fill="#0d0e13"/>
  <path class="cls-1" d="M356.21,182.22c-3.12-13.59-15.29-30.98-19.27-36.41-.79-1.08-.96-2.47-.49-3.72,17.44-46.59,3.66-72.85,3.66-72.85-3.1-5.32-13.73-6.2-13.73-6.2-26.91-3.9-63.42,22.75-71.78,29.19-.99.77-2.28,1.01-3.49.66-.09-.03-.18-.05-.27-.08s-.18-.06-.27-.09c-17.08-6.52-35.48-8.31-52.12-7.91-16.65-.4-35.04,1.4-52.12,7.91-.09.03-.18.06-.27.09s-.18.05-.27.08c-1.2.35-2.49.11-3.49-.66-8.36-6.44-44.88-33.09-71.78-29.19,0,0-10.63.89-13.73,6.2,0,0-13.78,26.26,3.66,72.85.47,1.25.29,2.65-.49,3.72-3.98,5.43-16.15,22.82-19.27,36.41-.61,2.64,1.63,5.07,4.31,4.74s5.87-.73,8.96-1.21,5.66,2.92,4.07,5.78c-6.59,11.88-17.74,35.85-14.86,57.67.41,3.13,4.21,4.56,6.53,2.43.05-.05.1-.1.16-.15,2.31-2.21,6.13-1,6.65,2.15,2.78,17,14.39,46.03,59.21,65.92,0,0,42.98,17.72,75.32,17.72,2.53.06,5,.07,7.42.05,2.43.02,4.89,0,7.42-.05,32.34,0,75.32-17.72,75.32-17.72,44.82-19.89,56.43-48.92,59.21-65.92.52-3.15,4.34-4.37,6.65-2.15.05.05.1.1.16.15,2.32,2.14,6.11.7,6.53-2.43,2.88-21.82-8.27-45.78-14.86-57.67-1.59-2.86.83-6.29,4.07-5.78s6.36.9,8.96,1.21,4.92-2.11,4.31-4.74Z"/>
  <g>
    <path class="cls-3" d="M267.62,212.54c-.07-.03-.12-.07-.16-.13-.72-1.12-7.64-12.67,9.21-15.48,0,0,28.88-6.6,46.34,30.51.13.28-.12.59-.42.52l-2.9-.72c-1.64-.41-3.01,1.26-2.32,2.8,1.73,3.88,3.89,10.29,3.42,17.46-.29,4.5-1.95,8.8-4.62,12.43-5.96,8.12-21.03,26.48-39.11,32.11-.33.1-.6-.26-.42-.55,4.76-7.26,36.95-59.5-9.03-78.95Z"/>
    <path class="cls-3" d="M129.25,212.54c.07-.03.12-.07.16-.13.72-1.12,7.64-12.67-9.21-15.48,0,0-28.88-6.6-46.34,30.51-.13.28.12.59.42.52l2.9-.72c1.64-.41,3.01,1.26,2.32,2.8-1.73,3.88-3.89,10.29-3.42,17.46.29,4.5,1.95,8.8,4.62,12.43,5.96,8.12,21.03,26.48,39.11,32.11.33.1.6-.26.42-.55-4.76-7.26-36.95-59.5,9.03-78.95Z"/>
  </g>
  <g>
    <path class="cls-3" d="M279.52,105.49c5.73-4.72,25.45-20.18,34.93-17.66.12.03.23.07.34.12,1.65.79,13.06,7.79-4.18,44.75-.51,1.08-1.91,1.38-2.8.59l-28.34-25.09c-.82-.73-.8-2.01.05-2.71Z"/>
    <path class="cls-3" d="M117.34,104.53c-5.73-4.72-25.45-20.18-34.93-17.66-.12.03-.23.07-.34.12-1.65.79-13.06,7.79,4.18,44.75.51,1.08,1.91,1.38,2.8.59l28.34-25.09c.82-.73.8-2.01-.05-2.71Z"/>
  </g>
  <g>
    <path class="cls-3" d="M228.1,195.88s-13.88-11.88,0-27.24c0,0,9.75-12.11,21.86-6.2,0,0,12.11,8.27-2.95,19.2,0,0-14.47,7.22-18.9,14.24Z"/>
    <circle class="cls-2" cx="243.39" cy="202.2" r="11.74"/>
    <path class="cls-3" d="M168.77,195.88s13.88-11.88,0-27.24c0,0-9.75-12.11-21.86-6.2,0,0-12.11,8.27,2.95,19.2,0,0,14.47,7.22,18.9,14.24Z"/>
    <circle class="cls-2" cx="153.48" cy="202.2" r="11.74"/>
  </g>
  <path class="cls-2" d="M251.38,240.54c-5.98-5.98-21.27-18.83-21.27-18.83-12.76-13.9-22.49-18.12-28.5-19.19-.61-.15-1.67-.34-3.18-.32-1.5-.02-2.57.17-3.18.32-6.01,1.07-15.74,5.29-28.5,19.19,0,0-15.28,12.85-21.27,18.83,0,0-23.84,27.34,6.75,52.87,7.63,6.37,16.78,10.62,26.48,12.73,5.92,1.29,13.13,2.4,19.71,2.2,6.57.21,13.78-.91,19.71-2.2,9.71-2.11,18.86-6.37,26.48-12.73,30.59-25.53,6.75-52.87,6.75-52.87ZM217.8,275.63c-1.41,2.92-6.11,9.79-18.76,9.89,0,0,0,.01,0,.01-.21,0-.4,0-.6,0-.21,0-.39.01-.6,0,0,0,0,0,0-.01-12.65-.1-17.34-6.97-18.76-9.89-.37-.76-.57-1.59-.57-2.44,0-1.36.24-2.2.72-2.91.86-1.28,2.81-1.73,4.22-1.09l4.68,2.15c.91.34,1.71.09,2.35-.34,1.06-.72,1.64-1.98,1.64-3.26v-9.81c0-1.95.64-3.85,1.85-5.39.18-.23.38-.47.59-.69-.89-.33-1.74-.77-2.54-1.3-.75-.37-1.49-.76-2.22-1.11-3.98-1.93-9.67-7.04-9.67-10.26s1.57-5.55,3.69-7.68c1.62-1.62,7.72-2.71,11.96-3.14.69-.13,1.4-.2,2.13-.2.16,0,.35,0,.54.01.19,0,.38-.01.54-.01.73,0,1.44.08,2.13.2,4.24.43,10.33,1.52,11.96,3.14,2.12,2.12,3.69,4.44,3.69,7.68s-5.69,8.34-9.67,10.26c-.73.35-1.47.74-2.22,1.11-.79.53-1.64.97-2.53,1.3.29.31.55.64.79.96,1.09,1.46,1.65,3.26,1.65,5.09v9.84c0,1.29.58,2.54,1.64,3.26.64.44,1.44.69,2.35.34l4.68-2.15c1.4-.65,3.35-.2,4.22,1.09.48.71.72,1.55.72,2.91,0,.84-.2,1.68-.57,2.44Z"/>
</svg>